<svg width="250" height="200" viewBox="0 0 250 200" fill="none" xmlns="http://www.w3.org/2000/svg">
<path fill-rule="evenodd" clip-rule="evenodd" d="M63 134H154C154.515 134 155.017 133.944 155.5 133.839C155.983 133.944 156.485 134 157 134H209C212.866 134 216 130.866 216 127C216 123.134 212.866 120 209 120H203C199.134 120 196 116.866 196 113C196 109.134 199.134 106 203 106H222C225.866 106 229 102.866 229 99C229 95.134 225.866 92 222 92H200C203.866 92 207 88.866 207 85C207 81.134 203.866 78 200 78H136C139.866 78 143 74.866 143 71C143 67.134 139.866 64 136 64H79C75.134 64 72 67.134 72 71C72 74.866 75.134 78 79 78H39C35.134 78 32 81.134 32 85C32 88.866 35.134 92 39 92H64C67.866 92 71 95.134 71 99C71 102.866 67.866 106 64 106H24C20.134 106 17 109.134 17 113C17 116.866 20.134 120 24 120H63C59.134 120 56 123.134 56 127C56 130.866 59.134 134 63 134ZM226 134C229.866 134 233 130.866 233 127C233 123.134 229.866 120 226 120C222.134 120 219 123.134 219 127C219 130.866 222.134 134 226 134Z" fill="#F3F7FF"/>
<path fill-rule="evenodd" clip-rule="evenodd" d="M113.119 132.307C113.04 132.86 113 133.425 113 134C113 140.627 118.373 146 125 146C131.627 146 137 140.627 137 134C137 133.425 136.96 132.86 136.881 132.307H166V159C166 160.657 164.657 162 163 162H87C85.3431 162 84 160.657 84 159V132.307H113.119Z" fill="white"/>
<path fill-rule="evenodd" clip-rule="evenodd" d="M138 132C138 139.18 132.18 145 125 145C117.82 145 112 139.18 112 132C112 131.767 112.006 131.536 112.018 131.307H84L93.5604 103.039C93.9726 101.82 95.1159 101 96.4023 101H153.598C154.884 101 156.027 101.82 156.44 103.039L166 131.307H137.982C137.994 131.536 138 131.767 138 132Z" fill="white"/>
<path fill-rule="evenodd" clip-rule="evenodd" d="M136.098 132.955C136.098 138.502 131.129 144 125 144C118.871 144 113.902 138.502 113.902 132.955C113.902 132.775 113.908 131.596 113.918 131.419H93L101.161 111.575C101.513 110.634 102.489 110 103.587 110H146.413C147.511 110 148.487 110.634 148.839 111.575L157 131.419H136.082C136.092 131.596 136.098 132.775 136.098 132.955Z" fill="#E8F0FE"/>
<path fill-rule="evenodd" clip-rule="evenodd" d="M85.25 131.512V158C85.25 158.966 86.0335 159.75 87 159.75H163C163.966 159.75 164.75 158.966 164.75 158V131.512L155.255 103.439C155.015 102.728 154.348 102.25 153.598 102.25H96.4023C95.6519 102.25 94.985 102.728 94.7446 103.439L85.25 131.512Z" stroke="#1F64E7" stroke-width="2.5"/>
<path d="M98 131C101.937 131 106.185 131 110.745 131C112.621 131 112.621 132.319 112.621 133C112.621 139.627 118.117 145 124.897 145C131.677 145 137.173 139.627 137.173 133C137.173 132.319 137.173 131 139.05 131H164M90.5737 131H93H90.5737Z" stroke="#1F64E7" stroke-width="2.5" stroke-linecap="round" stroke-linejoin="round"/>
<path d="M126.354 53C107.224 54.6291 100.193 70.9184 105.953 80.4136C110.018 87.1129 116.904 96.1669 129.742 93.9952C142.579 91.8229 143.661 79.8709 136.9 78.2452C130.139 76.62 106.054 84.2022 108.776 101.718C110.741 114.357 127.772 118 127.772 118" stroke="#3976EA" stroke-width="2" stroke-dasharray="7"/>
<path fill-rule="evenodd" clip-rule="evenodd" d="M137.25 43C137.25 43 139.732 35.9765 139.994 33.2443C140.131 31.8167 137.948 27.8417 135.392 31.5185C132.836 35.1953 134.002 39.7036 137.25 43" fill="#3976EA"/>
<path fill-rule="evenodd" clip-rule="evenodd" d="M127.493 35.4686C124.262 34.4198 122.8 35.2376 122.177 36.8697C121.553 38.5024 122.424 41.6102 127.296 42.3186C132.169 43.027 137 42.9999 137 42.9999C137 42.9999 130.723 36.5174 127.493 35.4686" fill="#3976EA"/>
<path fill-rule="evenodd" clip-rule="evenodd" d="M137.009 44.8259C137.079 44.5406 137.172 44.2672 137.276 44C136.703 44.0892 136.121 44.2146 135.534 44.3843C134.898 44.568 134.305 44.8089 133.746 45.0849C133.504 45.5368 133.308 46.0196 133.18 46.538C132.394 49.7297 134.25 52.9466 137.367 54C137.704 53.934 138.044 53.8576 138.383 53.7596C139.333 53.4852 140.208 53.122 141 52.7011C137.956 51.383 136.204 48.0939 137.009 44.8259" fill="#3976EA"/>
<path fill-rule="evenodd" clip-rule="evenodd" d="M132.406 46.9168C132.48 46.5996 132.579 46.2963 132.69 46C130.028 47.715 128.538 50.3767 128.784 51.9288C127.083 52.664 126 53.2834 126 53.2834C126 53.2834 127.283 53.1852 129.153 52.8237C130.154 54.2958 132.93 55.2814 136 54.9279C133.219 53.4815 131.65 50.1898 132.406 46.9168" fill="#3976EA"/>
<path fill-rule="evenodd" clip-rule="evenodd" d="M141.424 47.7509C140.734 47.5846 140.306 46.8885 140.472 46.1914C140.637 45.499 141.335 45.0699 142.025 45.2362C142.718 45.4036 143.142 46.1023 142.977 46.7952C142.81 47.4919 142.118 47.9177 141.424 47.7509M138.198 43.9163C138.061 44.2358 137.944 44.5729 137.861 44.9221C137.129 47.9831 138.82 51.0621 141.688 52.1301C144.081 50.6347 145.425 48.5173 144.879 46.6788C144.273 44.6166 141.486 43.5516 138.198 43.9163Z" fill="#3976EA"/>
</svg>
